<svg xmlns="http://www.w3.org/2000/svg" enable-background="new 0 0 1600 1600" viewBox="0 0 1600 1600"><path fill="#e0e0e0" d="M777.73,419.93L273.69,719.08c-12.95,7.69-29.68,3.42-37.36-9.53L51.53,398.18          c-7.69-12.95-3.42-29.68,9.53-37.36L565.11,61.67c12.95-7.68,29.67-3.42,37.36,9.53l184.79,311.37          C794.95,395.52,790.68,412.24,777.73,419.93z"/><path fill="#fff" d="M222.45 574.99l18.15 30.59-3.15 1.87-16.49-27.79-7.21 4.28-1.66-2.8L222.45 574.99zM270.4 584.11l1.66 2.8-21.45 12.73-1.32-2.23 5.32-20c1.43-5.45.87-7.9-.38-9.99-2.1-3.54-5.89-4.25-10.56-1.47-3.58 2.13-5.69 4.85-6.33 8.36l-3.37-.6c.7-4.2 3.57-8.02 8.24-10.8 6.2-3.68 12.01-2.87 15.04 2.24 1.74 2.93 2.37 6.09.65 12.55l-4.33 16.39L270.4 584.11zM299.48 559.76l-6.12 3.63 4.77 8.04-3.15 1.87-4.77-8.04-17.26 10.24-1.35-2.27 4.18-29.9 3.49-2.07-3.92 29.03 13.28-7.88-4.2-7.08 3.06-1.81 4.2 7.08 6.12-3.63L299.48 559.76zM346.35 531.94l-6.11 3.63 4.77 8.04-3.15 1.87-4.77-8.04-17.26 10.24-1.35-2.27 4.18-29.89 3.49-2.07-3.92 29.03 13.28-7.88-4.2-7.08 3.06-1.82 4.2 7.08 6.12-3.63L346.35 531.94zM372.52 515.12c3.09 5.2 1.87 11.42-5.6 15.85-4.42 2.62-9.52 3.58-13.3 2.58l.05-3.4c3.19.89 7.56.3 11.49-2.04 5.2-3.09 6.45-7.25 4.24-10.97-2.33-3.93-6.24-4.92-14.01-.31l-6.51 3.86-7.53-16.27 16.73-9.93 1.66 2.8-13.98 8.3 4.74 10.36 3.93-2.33C363.65 508.15 369.3 509.7 372.52 515.12zM402.67 497.04c3.4 5.72 1.08 12.06-4.87 15.59-8.12 4.82-15.88 1.81-21.61-7.85-6.17-10.4-3.71-19.19 4.59-24.11 2.75-1.64 5.62-2.68 8.24-2.64l.23 3.29c-2.19-.11-4.52.74-6.79 2.08-6.6 3.91-8.32 10.67-3.4 18.97.41.7.98 1.55 1.61 2.41-.47-4.27 2-8.27 6.24-10.79C392.98 490.38 399.35 491.45 402.67 497.04zM399.61 498.97c-2.38-4.02-6.89-4.83-11.6-2.03-4.67 2.78-6.15 7.55-3.9 11.35 2 3.37 6.69 4.89 11.97 1.76C400.5 507.43 402.03 503.04 399.61 498.97zM444.72 472.56c3.03 5.11 1.66 11.25-5.73 15.63-4.42 2.62-9.56 3.61-13.35 2.6l.05-3.39c3.18.89 7.6.27 11.58-2.09 5.07-3.01 6.47-7.03 4.21-10.83-2.18-3.67-6.18-4.54-11.86-1.17l-2.18 1.3-1.38-2.31 2.18-15.65-15.64 9.28-1.66-2.8 19.66-11.67 1.32 2.23-2.2 16.01C436.49 466.16 441.82 467.67 444.72 472.56zM475.18 454.01c3.4 5.72 1.08 12.06-4.86 15.59-8.13 4.82-15.89 1.81-21.62-7.85-6.17-10.4-3.71-19.19 4.59-24.11 2.75-1.63 5.62-2.68 8.24-2.64l.24 3.29c-2.19-.11-4.52.74-6.8 2.09-6.6 3.91-8.32 10.67-3.39 18.97.41.7.97 1.55 1.61 2.41-.47-4.27 2-8.28 6.24-10.79C465.5 447.35 471.86 448.42 475.18 454.01zM472.13 455.94c-2.39-4.02-6.89-4.83-11.6-2.03-4.68 2.78-6.15 7.55-3.9 11.35 2 3.37 6.68 4.9 11.97 1.76C473.01 464.39 474.54 460 472.13 455.94zM490.58 415.86l1.32 2.23 4.03 35.95-3.41 2.02-3.91-35.26-15.73 9.34 3.4 5.72-3.1 1.84-5.05-8.52L490.58 415.86zM534.3 389.91l1.32 2.23 4.03 35.95-3.41 2.02-3.91-35.26-15.73 9.34 3.4 5.72-3.1 1.84-5.05-8.52L534.3 389.91zM577.49 394.12c3.22 5.42.63 11.5-6.67 15.83-7.34 4.36-13.79 3.64-17.01-1.78-2.18-3.67-1.61-7.49 1.44-11.02-3.83.62-6.9-.69-8.8-3.88-2.96-4.98-.56-10.6 5.91-14.44 6.47-3.84 12.63-3.3 15.59 1.68 1.89 3.19 1.52 6.54-.9 9.63C571.64 389.14 575.34 390.49 577.49 394.12zM574.24 395.99c-2.23-3.76-6.87-4.19-12.28-.98-5.42 3.21-7.2 7.47-4.98 11.22 2.26 3.8 6.85 4.27 12.26 1.05C574.66 404.07 576.49 399.79 574.24 395.99zM560.47 392.52c4.76-2.83 6.33-6.65 4.36-9.97-2.05-3.45-6.31-3.76-10.89-1.04-4.63 2.75-6.31 6.58-4.29 9.99C551.65 394.86 555.71 395.34 560.47 392.52zM603.02 369.45c6.17 10.4 3.7 19.19-4.59 24.11-2.76 1.64-5.62 2.68-8.24 2.64l-.24-3.28c2.19.11 4.53-.74 6.8-2.09 6.6-3.91 8.32-10.67 3.39-18.97-.41-.7-.97-1.55-1.61-2.41.46 4.27-2.01 8.28-6.24 10.79-6.07 3.6-12.44 2.54-15.75-3.06-3.4-5.72-1.08-12.06 4.86-15.59C589.53 356.78 597.29 359.79 603.02 369.45zM595.09 365.95c-2-3.36-6.68-4.9-11.97-1.76-4.42 2.62-5.94 7.01-3.53 11.08 2.38 4.02 6.88 4.83 11.61 2.03C595.87 374.52 597.35 369.75 595.09 365.95zM625.11 336.01l18.15 30.58-3.14 1.87-16.49-27.79-7.21 4.28-1.66-2.8L625.11 336.01zM673.06 345.14l1.66 2.8-21.45 12.73-1.32-2.23 5.32-20c1.43-5.45.87-7.9-.38-10-2.1-3.54-5.89-4.24-10.56-1.47-3.58 2.12-5.69 4.85-6.32 8.36l-3.37-.6c.7-4.2 3.57-8.03 8.24-10.8 6.2-3.68 12-2.87 15.04 2.24 1.73 2.93 2.37 6.09.65 12.55l-4.33 16.39L673.06 345.14zM696.94 322.87c3.03 5.11 1.66 11.25-5.73 15.63-4.41 2.62-9.55 3.6-13.34 2.6l.05-3.39c3.19.89 7.6.27 11.58-2.09 5.07-3.01 6.47-7.03 4.21-10.83-2.18-3.67-6.18-4.54-11.86-1.18l-2.18 1.3-1.38-2.31 2.17-15.65-15.64 9.28-1.66-2.8 19.66-11.67 1.32 2.23-2.2 16.01C688.71 316.47 694.03 317.98 696.94 322.87z"/><rect width="284.87" height="15.44" x="464.7" y="419.9" fill="#fff" transform="rotate(-30.692 607.143 427.629)"/><rect width="146.11" height="15.45" x="609.49" y="411" fill="#fff" transform="rotate(-30.692 682.569 418.742)"/><path fill="#ebebeb" d="M277.23,506.82l-75.37,44.73c-7.57,4.49-17.35,2-21.85-5.57l-29.3-49.37c-4.49-7.57-2-17.35,5.57-21.85          l75.36-44.73c7.57-4.49,17.35-2,21.85,5.57l29.3,49.36C287.3,492.54,284.81,502.33,277.23,506.82z" opacity=".5"/><path fill="#e0e0e0" d="M175.53,538.44l-2.92-4.93l52.92-31.41c6.1-3.63,8.12-11.54,4.5-17.66c-3.63-6.11-11.66-8.15-17.65-4.5          l-52.93,31.41l-2.92-4.93l52.92-31.41c8.82-5.23,20.26-2.32,25.5,6.5c5.24,8.83,2.32,20.27-6.5,25.51L175.53,538.44z"/><rect width="42.24" height="5.73" x="229.54" y="469.34" fill="#e0e0e0" transform="rotate(-30.638 250.614 472.169)"/><rect width="307.4" height="26.38" x="102.43" y="332.23" fill="#fff" transform="rotate(-30.683 256.152 345.436)"/><path fill="#fff" d="M590.77,182.81l-47.79,28.36c-1.5,0.89-3.43,0.39-4.32-1.1l-28.36-47.79c-0.89-1.5-0.39-3.43,1.1-4.32       l47.79-28.36c1.5-0.89,3.43-0.39,4.32,1.1l28.36,47.79C592.76,179.99,592.26,181.92,590.77,182.81z"/><g display="none"><path fill="#f5f5f5" d="M944.79 583.16l-1.54.38c-12.96 3.23-23.26 13.16-26.38 26.02-.4 1.65-.68 3.34-.84 5.04-1.11 12.24 4.47 24.91 14.29 32.5 5.78 4.46 13.09 7.48 16.84 13.71 4.88 8.11 1.93 18.38-1.14 27.26-3.07 8.88-6 19.17-1.08 27.25 3.08 5.06 8.75 8.13 14.53 9.59 15.3 3.87 32.01-2.43 42.84-13.69 10.83-11.26 16.31-26.77 17.9-42.28 2.23-21.73-3.05-44.69-16.9-61.81C989.46 590.02 966.56 579.67 944.79 583.16zM628.48 721.72l1.47.59c12.39 5 26.55 3.02 36.64-5.56 1.3-1.1 2.51-2.3 3.64-3.58 8.09-9.25 11.02-22.78 7.53-34.7-2.05-7.01-6.2-13.74-5.57-20.99.81-9.43 9.24-16 16.94-21.39 7.7-5.39 16.12-11.99 16.89-21.42.48-5.91-2.3-11.72-6.12-16.3-10.1-12.12-27.33-16.84-42.71-14.09-15.38 2.75-28.93 12.08-39.33 23.7-14.57 16.27-23.79 37.95-22.64 59.94C596.37 689.92 608.81 711.75 628.48 721.72z"/><circle cx="969.34" cy="774.16" r="24.4" fill="#f5f5f5"/></g><path fill="#deecf9" d="M1601.89,1071.67c-23.97-24.39-47.14-57.25-69.13-101.48c-82.93-166.8-373.13-217.43-518.24,10.3    c-145.12,227.73-269.87,226.58-370,184.46c-114.83-48.31-165.27-193.72-345.02-162.97c-192.63,32.95-182.75,220.55-302.33,217.78    V1600h1604.71V1071.67z"/><path fill="#000936" d="M933.92,1342.36l-435.13-1.84c-52.33-0.22-94.57-39.15-94.35-86.97l4.61-996.75      c0.22-47.84,42.86-86.46,95.22-86.24l435.13,1.84c52.33,0.22,94.57,39.15,94.34,86.97l-4.61,996.75      C1028.92,1303.96,986.29,1342.58,933.92,1342.36z"/><path fill="#fff" d="M938.79,210.27l-84.36-0.36l-246.39-1.04l-29.67-0.13l-73.84-0.31c-36.67-0.15-66.53,26.89-66.69,60.4    l-4.5,972.9c-0.16,33.49,29.42,60.76,66.07,60.91l434.26,1.83c36.67,0.16,66.53-26.89,66.69-60.4l4.5-972.9    C1005.02,237.69,975.44,210.42,938.79,210.27z"/><path fill="#7b9dec" d="M845.35,1231.5H565.49c-9.98,0-18.07-8.09-18.07-18.07v-188.28c0-9.98,8.09-18.07,18.07-18.07h279.86    c9.98,0,18.07,8.09,18.07,18.07v188.28C863.42,1223.41,855.33,1231.5,845.35,1231.5z"/><path fill="#964c00" d="M712.61,537.28c40.25,0,72.88,32.63,72.88,72.88c0,40.25-32.63,72.88-72.88,72.88s-72.88-32.63-72.88-72.88      C639.72,569.91,672.36,537.28,712.61,537.28 M712.61,535.99c-40.9,0-74.17,33.27-74.17,74.17c0,40.9,33.27,74.17,74.17,74.17      c40.9,0,74.17-33.27,74.17-74.17C786.78,569.27,753.51,535.99,712.61,535.99L712.61,535.99z"/><path fill="#c46200" d="M698.86,641.66c-2.03,0-3.93-0.79-5.36-2.22l-23.8-23.8c-2.2-2.2-2.83-5.35-1.66-8.23      c1.17-2.88,3.83-4.69,6.94-4.72c0,0,0,0,0,0c2.11,0,4.01,0.79,5.44,2.22l14.16,14.16c1.19,1.19,2.77,1.85,4.45,1.85      c1.66,0,3.22-0.64,4.4-1.79l39.18-38.3c1.43-1.39,3.31-2.16,5.3-2.16h2.25c3.13,0,5.81,1.79,7.01,4.68      c1.2,2.89,0.57,6.05-1.64,8.26l-47.84,47.84c-1.43,1.43-3.34,2.22-5.36,2.22H698.86z"/><path fill="#964c00" d="M750.16,579.3c6.18,0,9.28,7.48,4.91,11.85l-47.84,47.84c-1.3,1.3-3.07,2.03-4.91,2.03h-3.47      c-1.84,0-3.61-0.73-4.91-2.03l-23.8-23.8c-4.35-4.35-1.31-11.78,4.83-11.85c0.02,0,0.05,0,0.07,0c1.84,0,3.61,0.73,4.91,2.03      l14.16,14.16c1.35,1.35,3.13,2.03,4.91,2.03c1.75,0,3.5-0.66,4.85-1.98l39.18-38.3c1.3-1.27,3.04-1.98,4.85-1.98H750.16       M750.16,578.02h-2.25c-2.16,0-4.2,0.83-5.75,2.34l-39.18,38.3c-1.06,1.04-2.47,1.61-3.95,1.61c-1.51,0-2.93-0.59-4-1.66      l-14.16-14.16c-1.55-1.55-3.62-2.41-5.82-2.41l-0.09,0c-3.37,0.04-6.26,2-7.53,5.12c-1.27,3.12-0.58,6.54,1.8,8.92l23.8,23.8      c1.55,1.55,3.62,2.41,5.82,2.41h3.47c2.2,0,4.26-0.86,5.82-2.41l47.84-47.84c2.4-2.4,3.08-5.83,1.78-8.96      C756.46,579.96,753.55,578.02,750.16,578.02L750.16,578.02z"/><text transform="translate(567.232 780.031)"><tspan x="0" y="0" fill="#c46200" font-family="Gotham-Black" font-size="62.273">Payment</tspan><tspan x="-35.99" y="74.73" fill="#c46200" font-family="Gotham-Black" font-size="62.273">Successfull</tspan></text><rect width="227.51" height="116.19" x="593.85" y="1065.85" fill="#90b07a"/><rect width="227.51" height="116.19" x="592.64" y="1064.12" fill="#90b07a"/><rect width="227.51" height="116.19" x="591.03" y="1062.62" fill="#90b07a"/><rect width="227.51" height="116.19" x="589.47" y="1061.2" fill="#b3d09f"/><path fill="#90b07a" d="M598.37,1069.91v98.76h209.71v-98.76H598.37z M800.14,1161.02H606.32v-83.45h193.82V1161.02z"/><path fill="#90b07a" d="M598.37 1069.91v22.46c1.61.47 3.31.73 5.08.73 10.11 0 18.31-8.2 18.31-18.31 0-1.69-.25-3.33-.68-4.88H598.37zM808.08 1069.82h-22.46c-.47 1.61-.73 3.31-.73 5.08 0 10.11 8.2 18.3 18.31 18.3 1.69 0 3.33-.25 4.88-.68V1069.82zM808.08 1168.67h-22.46c-.47-1.61-.73-3.31-.73-5.08 0-10.11 8.2-18.31 18.31-18.31 1.69 0 3.33.25 4.88.68V1168.67zM598.37 1168.57v-22.46c1.61-.47 3.31-.73 5.08-.73 10.11 0 18.31 8.2 18.31 18.31 0 1.69-.25 3.33-.68 4.88H598.37zM727.84 1119.29c0 13.59-11.02 24.61-24.61 24.61s-24.61-11.02-24.61-24.61c0-13.59 11.02-24.61 24.61-24.61S727.84 1105.7 727.84 1119.29z"/><path fill="#ca8024" d="M549.53,982.66c-30.67,3.83-52.43,31.81-48.6,62.48c3.83,30.67,31.81,52.43,62.48,48.6     c30.67-3.83,52.43-31.81,48.6-62.48C608.17,1000.58,580.2,978.82,549.53,982.66z"/><path fill="#ecb74a" d="M544.68,983.26c-30.67,3.83-52.43,31.81-48.6,62.48c3.83,30.67,31.81,52.43,62.48,48.6     c30.67-3.83,52.43-31.8,48.6-62.48C603.33,1001.19,575.36,979.43,544.68,983.26z"/><path fill="#e8a22c" d="M558.03,1090.06c-27.9,3.49-53.44-16.38-56.93-44.28c-3.49-27.9,16.38-53.43,44.28-56.92      c27.9-3.49,53.43,16.37,56.92,44.27C605.79,1061.03,585.93,1086.57,558.03,1090.06z M545.76,991.87      c-26.24,3.28-44.92,27.29-41.64,53.53c3.28,26.24,27.3,44.92,53.53,41.64c26.24-3.28,44.91-27.3,41.63-53.53      C596.01,1007.27,572,988.6,545.76,991.87z"/><path fill="#e8a22c" d="M560.51,1053.27c-0.01-1.11-0.17-2.08-0.49-2.92c-0.32-0.84-0.83-1.6-1.55-2.28      c-0.71-0.68-1.63-1.31-2.76-1.88c-1.13-0.57-2.5-1.13-4.12-1.67c-2.79-0.96-5.32-1.96-7.6-3.02c-2.28-1.05-4.23-2.27-5.86-3.66      c-1.63-1.39-2.89-3.02-3.8-4.88c-0.91-1.87-1.37-4.09-1.38-6.68c-0.02-2.24,0.37-4.29,1.15-6.14c0.78-1.85,1.91-3.47,3.38-4.85      s3.23-2.51,5.28-3.38c2.05-0.87,4.36-1.43,6.91-1.68l-0.05-8.46l6.81-0.04l0.05,8.58c2.44,0.3,4.66,0.93,6.65,1.9      c1.99,0.96,3.69,2.22,5.09,3.77c1.4,1.55,2.48,3.38,3.25,5.5c0.77,2.12,1.16,4.5,1.17,7.13l-12.3,0.08      c-0.02-3.16-0.74-5.53-2.15-7.09c-1.42-1.56-3.3-2.33-5.66-2.32c-1.28,0.01-2.38,0.19-3.3,0.55c-0.92,0.36-1.68,0.85-2.27,1.48      c-0.59,0.62-1.03,1.36-1.31,2.2c-0.28,0.85-0.41,1.76-0.41,2.73s0.15,1.86,0.44,2.65c0.29,0.79,0.78,1.52,1.48,2.19      c0.7,0.67,1.63,1.29,2.78,1.88c1.15,0.59,2.58,1.19,4.29,1.81c2.76,1.01,5.27,2.05,7.53,3.12c2.26,1.07,4.21,2.3,5.83,3.7      c1.63,1.4,2.89,3.04,3.8,4.9c0.91,1.87,1.37,4.08,1.38,6.64c0.02,2.32-0.38,4.41-1.17,6.26c-0.8,1.85-1.93,3.45-3.4,4.81      c-1.47,1.35-3.24,2.45-5.32,3.28c-2.08,0.83-4.4,1.37-6.95,1.63l0.05,7.87l-6.77,0.04l-0.05-7.83c-2.36-0.22-4.64-0.72-6.84-1.5      c-2.2-0.78-4.16-1.91-5.88-3.39c-1.71-1.48-3.09-3.35-4.12-5.61c-1.04-2.26-1.56-4.97-1.58-8.14l12.31-0.08      c0.01,1.87,0.28,3.43,0.82,4.68c0.53,1.25,1.24,2.25,2.13,2.99c0.89,0.75,1.89,1.27,3.01,1.56c1.12,0.3,2.27,0.44,3.43,0.43      c1.33-0.01,2.5-0.19,3.51-0.54c1.01-0.35,1.85-0.83,2.52-1.44c0.68-0.61,1.18-1.33,1.52-2.16      C560.35,1055.15,560.51,1054.25,560.51,1053.27z"/><g><path fill="#ca8024" d="M607.93,932.62c-30.67,3.83-52.43,31.81-48.6,62.48c3.83,30.67,31.81,52.43,62.48,48.6     c30.67-3.83,52.43-31.81,48.6-62.48C666.57,950.55,638.6,928.79,607.93,932.62z"/><path fill="#ecb74a" d="M603.08,933.23c-30.67,3.83-52.43,31.81-48.6,62.48c3.83,30.67,31.81,52.43,62.48,48.6     c30.67-3.83,52.43-31.8,48.6-62.48C661.73,951.15,633.75,929.39,603.08,933.23z"/><path fill="#e8a22c" d="M616.43,1040.02c-27.9,3.49-53.44-16.38-56.93-44.28c-3.49-27.9,16.38-53.43,44.28-56.92      c27.9-3.49,53.43,16.37,56.92,44.27C664.19,1010.99,644.33,1036.53,616.43,1040.02z M604.16,941.84      c-26.24,3.28-44.92,27.29-41.64,53.53c3.28,26.24,27.3,44.92,53.53,41.64c26.24-3.28,44.91-27.3,41.63-53.53      C654.41,957.23,630.4,938.56,604.16,941.84z"/><path fill="#e8a22c" d="M618.9,1003.24c-0.01-1.11-0.17-2.08-0.49-2.92c-0.32-0.84-0.83-1.6-1.55-2.28      c-0.71-0.68-1.63-1.31-2.76-1.88c-1.13-0.57-2.5-1.13-4.12-1.67c-2.79-0.96-5.32-1.96-7.6-3.02c-2.28-1.05-4.23-2.27-5.86-3.66      c-1.63-1.39-2.89-3.02-3.8-4.88c-0.91-1.87-1.37-4.09-1.38-6.68c-0.02-2.24,0.37-4.29,1.15-6.14c0.78-1.85,1.91-3.47,3.38-4.85      c1.47-1.38,3.23-2.51,5.28-3.38c2.05-0.87,4.36-1.43,6.91-1.68l-0.05-8.46l6.81-0.04l0.05,8.58c2.44,0.3,4.66,0.93,6.65,1.9      c1.99,0.96,3.69,2.22,5.09,3.77c1.4,1.55,2.48,3.38,3.25,5.5c0.77,2.12,1.16,4.5,1.17,7.13l-12.3,0.08      c-0.02-3.16-0.74-5.53-2.15-7.09c-1.42-1.56-3.3-2.33-5.66-2.32c-1.28,0.01-2.38,0.19-3.3,0.55c-0.92,0.36-1.68,0.85-2.27,1.48      c-0.59,0.62-1.03,1.36-1.31,2.2c-0.28,0.85-0.41,1.76-0.41,2.73s0.15,1.86,0.44,2.65c0.29,0.79,0.78,1.52,1.48,2.19      c0.7,0.67,1.63,1.29,2.78,1.88c1.15,0.59,2.58,1.19,4.29,1.81c2.76,1.01,5.27,2.05,7.53,3.12c2.26,1.07,4.21,2.3,5.83,3.7      c1.63,1.4,2.89,3.04,3.8,4.9c0.91,1.87,1.37,4.08,1.38,6.64c0.02,2.32-0.38,4.41-1.17,6.26c-0.8,1.85-1.93,3.45-3.4,4.81      c-1.47,1.35-3.24,2.45-5.32,3.28c-2.08,0.83-4.4,1.37-6.95,1.63l0.05,7.87l-6.77,0.04l-0.05-7.83c-2.36-0.22-4.64-0.72-6.84-1.5      c-2.2-0.78-4.16-1.91-5.88-3.39c-1.71-1.48-3.09-3.35-4.12-5.61c-1.04-2.26-1.56-4.97-1.58-8.14l12.31-0.08      c0.01,1.87,0.28,3.43,0.82,4.68c0.53,1.25,1.24,2.25,2.13,2.99c0.89,0.75,1.89,1.27,3.01,1.56c1.12,0.3,2.27,0.44,3.43,0.43      c1.33-0.01,2.5-0.19,3.51-0.54c1.01-0.35,1.85-0.83,2.52-1.44c0.68-0.61,1.18-1.33,1.52-2.16      C618.75,1005.12,618.91,1004.21,618.9,1003.24z"/></g><g><path fill="#455a64" d="M519.92,586.7c0.38,0.38,72.69-24.48,72.69-24.48l-27.81-63.81l-64.37,24.61l35.41,20.35L519.92,586.7z"/><path fill="#455a64" d="M553.84,517.63v-86.89c0,0,99.77-18.24,171.64-17.16c71.87,1.07,145.89,12.87,145.89,12.87v83.42        C871.37,509.87,646.1,489.74,553.84,517.63z"/><path fill="#263238" d="M553.32,517.71l39.29,44.89v-52.73C592.61,509.87,559.75,513.8,553.32,517.71z"/><path fill="#263238" d="M553.84,430.74c0.31,0,0.45,19.47,0.31,43.48c-0.14,24.02-0.51,43.48-0.83,43.48         c-0.31,0-0.45-19.47-0.31-43.49C553.16,450.2,553.53,430.74,553.84,430.74z"/><path fill="#455a64" d="M905.19,580.04c-0.38,0.38-72.69-24.48-72.69-24.48l27.81-63.81l64.37,24.61l-35.41,20.35L905.19,580.04        z"/><path fill="#263238" d="M871.79,511.04l-39.29,44.89v-48.91C845.59,507.46,858.69,508.8,871.79,511.04z"/><path fill="#263238" d="M871.37,426.46c0.31,0,0.66,18.94,0.77,42.29c0.11,23.36-0.05,42.3-0.36,42.3         c-0.31,0-0.66-18.93-0.77-42.29C870.9,445.4,871.06,426.46,871.37,426.46z"/><path fill="#fff" d="M610.1 468.84c-.96-6.93 3.67-12.62 10.83-13.62 3.97-.55 7.49.43 10.02 2.76l-2.98 3.63c-1.79-1.56-3.85-2.21-6.15-1.89-4.3.6-6.94 4.04-6.33 8.37.6 4.33 4.07 6.93 8.37 6.33 2.3-.32 4.11-1.51 5.4-3.53l3.85 2.68c-1.8 2.96-4.91 4.87-8.92 5.42C617.07 479.99 611.06 475.77 610.1 468.84zM633.87 465.57c-.7-6.86 4.11-12.48 11.4-13.23 7.25-.75 13.14 3.75 13.85 10.64.71 6.89-4.15 12.49-11.4 13.23C640.44 476.95 634.58 472.43 633.87 465.57zM653.72 463.53c-.45-4.38-3.86-7.07-7.98-6.64-4.12.42-6.91 3.74-6.46 8.13.45 4.38 3.86 7.07 7.98 6.64C651.38 471.23 654.17 467.91 653.72 463.53zM685.2 472.83l-.93-13.88-6.08 11.88-2.41.16-7.49-10.71.87 13.59-5.03.32-1.49-23.15 4.43-.29 9.59 13.83 7.61-14.93 4.4-.28 1.55 23.14L685.2 472.83zM715.18 456.98c.14 5.17-3.64 8.49-9.84 8.66l-4.67.13.18 6.4-5.37.15-.65-23.19 10.04-.28C711.07 448.67 715.04 451.78 715.18 456.98zM709.75 457.13c-.07-2.55-1.77-4-5.05-3.9l-4.37.12.23 8.05 4.37-.12C708.2 461.19 709.82 459.65 709.75 457.13zM719.26 448.55h5.37v18.82h11.63v4.37h-17V448.55zM757.17 468.03l-.12 4.31-17.96-.52.67-23.19 17.53.51-.13 4.31-12.19-.36-.15 5.04 10.77.31-.12 4.17-10.77-.31-.16 5.37L757.17 468.03zM767.08 454.06l-7.41-.45.26-4.36 20.17 1.22-.26 4.36-7.41-.45-1.13 18.78-5.36-.32L767.08 454.06zM799.65 471.2l-.4 4.29-17.88-1.66 2.14-23.1 17.46 1.62-.4 4.29-12.14-1.13-.46 5.01 10.72.99-.39 4.16-10.72-.99-.5 5.35L799.65 471.2zM806.35 452.93l10.44 1.4c7.52 1 12.07 6.22 11.14 13.18-.93 6.96-6.69 10.8-14.21 9.8l-10.44-1.4L806.35 452.93zM814.04 472.91c4.56.61 7.92-1.72 8.5-6.12.59-4.4-2.04-7.52-6.6-8.13l-4.86-.65-1.9 14.25L814.04 472.91z"/><polygon fill="#455a64" points="916.02 434.36 921.71 441.05 937.78 434.36 933.09 427.33"/><path fill="#c46200" d="M908.65 402.55c0 4.62-3.75 8.37-8.37 8.37-4.62 0-8.37-3.75-8.37-8.37 0-4.62 3.75-8.37 8.37-8.37C904.9 394.18 908.65 397.93 908.65 402.55zM721.31 527.29c0 2.31-1.87 4.18-4.18 4.18-2.31 0-4.18-1.87-4.18-4.18 0-2.31 1.87-4.18 4.18-4.18C719.43 523.1 721.31 524.98 721.31 527.29z"/><path fill="#ff725e" d="M526.49,464.44c0,1.75-1.42,3.17-3.17,3.17c-1.75,0-3.17-1.42-3.17-3.17c0-1.75,1.42-3.17,3.17-3.17       C525.07,461.27,526.49,462.69,526.49,464.44z"/><polygon fill="#455a64" points="514.69 429.43 524.06 430 528.51 411.59 519.76 411.95"/><polygon fill="#c46200" points="807.4 576.51 810.55 585.35 829.23 582.22 825.47 574.31"/><polygon fill="#455a64" points="618.4 525.49 612.63 532.89 625.29 546.98 629.95 539.56"/><path fill="#c46200" d="M760.33,397.66c-0.54,0-1.06-0.13-1.55-0.39l-35.97-18.91c-0.29-0.15-0.62-0.23-0.95-0.23       s-0.66,0.08-0.95,0.23l-35.97,18.91c-0.49,0.26-1.01,0.39-1.55,0.39c-0.98,0-1.91-0.44-2.55-1.2c-0.64-0.75-0.89-1.71-0.73-2.7       l6.87-40.05c0.11-0.66-0.11-1.34-0.59-1.81l-29.1-28.36c-0.91-0.89-1.24-2.2-0.84-3.41c0.39-1.21,1.42-2.08,2.69-2.26       l40.21-5.84c0.67-0.1,1.24-0.51,1.54-1.12l17.98-36.44c0.56-1.14,1.71-1.85,2.98-1.85s2.42,0.71,2.98,1.85l17.98,36.44       c0.3,0.6,0.87,1.02,1.54,1.12l40.21,5.84c1.26,0.18,2.29,1.05,2.69,2.26c0.39,1.21,0.07,2.52-0.84,3.41l-29.1,28.36       c-0.48,0.47-0.7,1.15-0.59,1.81l6.87,40.05c0.17,0.98-0.09,1.94-0.73,2.7C762.25,397.22,761.31,397.66,760.33,397.66z"/><path fill="#964c00" d="M721.87,273.26c0.96,0,1.92,0.5,2.41,1.5l17.98,36.44c0.39,0.79,1.15,1.34,2.02,1.47l40.21,5.84       c2.2,0.32,3.08,3.03,1.49,4.58l-29.1,28.36c-0.63,0.62-0.92,1.51-0.77,2.38l6.87,40.05c0.3,1.74-1.08,3.15-2.65,3.15       c-0.41,0-0.84-0.1-1.25-0.31l-35.97-18.91c-0.39-0.21-0.82-0.31-1.25-0.31c-0.43,0-0.86,0.1-1.25,0.31l-35.97,18.91       c-0.41,0.22-0.84,0.31-1.25,0.31c-1.56,0-2.94-1.41-2.65-3.15l6.87-40.05c0.15-0.87-0.14-1.76-0.77-2.38l-29.1-28.36       c-1.59-1.55-0.71-4.26,1.49-4.58l40.21-5.84c0.87-0.13,1.63-0.68,2.02-1.47l17.98-36.44       C719.95,273.75,720.91,273.26,721.87,273.26 M721.87,271.97c-1.52,0-2.89,0.85-3.56,2.21l-17.98,36.44       c-0.2,0.41-0.6,0.7-1.05,0.77l-40.21,5.84c-1.51,0.22-2.73,1.25-3.2,2.7c-0.47,1.45-0.09,3.01,1,4.07l29.1,28.36       c0.33,0.32,0.48,0.79,0.4,1.24l-6.87,40.05c-0.2,1.16,0.12,2.33,0.87,3.22c0.76,0.91,1.87,1.43,3.04,1.43       c0.64,0,1.26-0.16,1.85-0.46l35.97-18.91c0.2-0.11,0.43-0.16,0.65-0.16s0.45,0.06,0.65,0.16l35.97,18.91       c0.58,0.31,1.2,0.46,1.85,0.46c1.17,0,2.28-0.52,3.04-1.43c0.75-0.89,1.07-2.06,0.87-3.22l-6.87-40.05       c-0.08-0.45,0.07-0.92,0.4-1.24l29.1-28.36c1.09-1.06,1.47-2.62,1-4.07s-1.7-2.48-3.2-2.7l-40.21-5.84       c-0.46-0.07-0.85-0.35-1.05-0.77l-17.98-36.44C724.75,272.82,723.39,271.97,721.87,271.97L721.87,271.97z"/><path fill="#c46200" d="M588.74,408.65c-0.53,0-1.05-0.22-1.42-0.6c-0.37-0.38-0.56-0.88-0.55-1.42l0.66-23.94       c0.01-0.4-0.17-0.77-0.49-1.01l-19.35-14.11c-0.61-0.44-0.9-1.18-0.78-1.92c0.13-0.74,0.66-1.33,1.38-1.55l22.97-6.77       c0.38-0.11,0.68-0.4,0.8-0.78l7.44-22.76c0.26-0.81,1.02-1.35,1.87-1.35c0.65,0,1.24,0.31,1.61,0.85l13.54,19.75       c0.22,0.33,0.59,0.52,0.99,0.52l23.95,0.05c0.75,0,1.42,0.42,1.76,1.1s0.25,1.46-0.21,2.06l-14.6,18.98       c-0.24,0.31-0.31,0.73-0.19,1.1l7.36,22.79c0.2,0.6,0.09,1.24-0.28,1.75c-0.37,0.51-0.96,0.81-1.58,0.81       c-0.22,0-0.45-0.04-0.66-0.12l-22.56-8.02c-0.13-0.05-0.27-0.07-0.4-0.07c-0.26,0-0.5,0.08-0.71,0.23l-19.4,14.04       C589.54,408.52,589.15,408.65,588.74,408.65z"/><path fill="#964c00" d="M601.28,332.83c0.49,0,0.98,0.22,1.3,0.69l13.54,19.75c0.29,0.43,0.78,0.69,1.3,0.69l23.95,0.05       c1.31,0,2.05,1.51,1.25,2.55l-14.6,18.98c-0.32,0.41-0.41,0.96-0.25,1.45l7.36,22.79c0.34,1.06-0.48,2.07-1.5,2.07       c-0.18,0-0.36-0.03-0.54-0.09l-22.56-8.02c-0.17-0.06-0.35-0.09-0.53-0.09c-0.33,0-0.65,0.1-0.93,0.3l-19.4,14.04       c-0.29,0.21-0.61,0.3-0.92,0.3c-0.84,0-1.61-0.67-1.59-1.63l0.66-23.94c0.01-0.52-0.23-1.01-0.65-1.32l-19.35-14.11       c-1.06-0.77-0.77-2.43,0.49-2.8l22.97-6.77c0.5-0.15,0.89-0.53,1.06-1.03l7.44-22.76C600,333.21,600.64,332.83,601.28,332.83        M601.28,332.07L601.28,332.07c-1.02,0-1.91,0.65-2.23,1.61l-7.44,22.76c-0.08,0.26-0.29,0.46-0.55,0.54l-22.97,6.77       c-0.86,0.25-1.49,0.96-1.64,1.84c-0.15,0.88,0.2,1.76,0.93,2.29L586.71,382c0.22,0.16,0.35,0.42,0.34,0.69l-0.66,23.94       c-0.02,0.64,0.21,1.24,0.65,1.69c0.44,0.46,1.06,0.72,1.69,0.72c0.49,0,0.96-0.15,1.37-0.45l19.4-14.04       c0.14-0.1,0.31-0.16,0.48-0.16c0.09,0,0.19,0.02,0.28,0.05l22.56,8.02c0.26,0.09,0.52,0.14,0.79,0.14       c0.74,0,1.45-0.36,1.89-0.97c0.44-0.61,0.56-1.37,0.33-2.09l-7.36-22.79c-0.08-0.26-0.03-0.54,0.13-0.76l14.6-18.98       c0.55-0.71,0.64-1.65,0.25-2.46c-0.4-0.81-1.2-1.31-2.1-1.31l-23.95-0.05c-0.27,0-0.53-0.13-0.68-0.36l-13.54-19.75       C602.76,332.45,602.06,332.07,601.28,332.07L601.28,332.07z"/><g><path fill="#c46200" d="M849.44,405.44c-0.41,0-0.8-0.13-1.14-0.38l-19.4-14.04c-0.21-0.15-0.45-0.23-0.71-0.23       c-0.14,0-0.27,0.02-0.4,0.07l-22.56,8.02c-0.22,0.08-0.44,0.12-0.67,0.12c-0.62,0-1.21-0.3-1.58-0.81       c-0.37-0.51-0.47-1.15-0.28-1.75l7.36-22.79c0.12-0.38,0.05-0.79-0.19-1.1l-14.6-18.98c-0.46-0.6-0.54-1.39-0.21-2.06       c0.33-0.68,1-1.1,1.76-1.1l23.95-0.05c0.4,0,0.77-0.2,0.99-0.52l13.54-19.75c0.37-0.54,0.96-0.85,1.61-0.85       c0.85,0,1.6,0.54,1.87,1.35l7.44,22.76c0.12,0.38,0.42,0.67,0.8,0.78l22.97,6.77c0.72,0.21,1.25,0.8,1.38,1.55       c0.13,0.74-0.17,1.48-0.78,1.92l-19.35,14.11c-0.32,0.23-0.5,0.61-0.49,1.01l0.66,23.94c0.01,0.54-0.18,1.04-0.55,1.42       C850.49,405.22,849.97,405.44,849.44,405.44L849.44,405.44z"/><path fill="#964c00" d="M836.9,329.62c0.64,0,1.28,0.38,1.51,1.09l7.44,22.76c0.16,0.5,0.56,0.88,1.06,1.03l22.97,6.77       c1.26,0.37,1.54,2.02,0.49,2.8l-19.35,14.11c-0.42,0.31-0.66,0.8-0.65,1.32l0.66,23.94c0.03,0.95-0.75,1.63-1.59,1.63       c-0.31,0-0.63-0.09-0.92-0.3l-19.4-14.04c-0.27-0.2-0.6-0.3-0.93-0.3c-0.18,0-0.36,0.03-0.53,0.09l-22.56,8.02       c-0.18,0.06-0.36,0.09-0.54,0.09c-1.02,0-1.84-1.01-1.5-2.07l7.36-22.79c0.16-0.5,0.07-1.04-0.25-1.45l-14.6-18.98       c-0.8-1.04-0.06-2.54,1.25-2.55l23.95-0.05c0.52,0,1.01-0.26,1.3-0.69l13.54-19.75C835.92,329.84,836.41,329.62,836.9,329.62        M836.9,328.86c-0.78,0-1.48,0.37-1.92,1.02l-13.54,19.75c-0.15,0.22-0.41,0.36-0.68,0.36l-23.95,0.05c-0.9,0-1.7,0.5-2.1,1.31       c-0.4,0.81-0.3,1.75,0.25,2.46l14.6,18.98c0.17,0.22,0.21,0.5,0.13,0.76l-7.36,22.79c-0.23,0.72-0.11,1.48,0.33,2.09       c0.44,0.61,1.15,0.97,1.89,0.97c0.27,0,0.53-0.05,0.79-0.14l22.56-8.02c0.09-0.03,0.18-0.05,0.28-0.05       c0.18,0,0.34,0.05,0.48,0.16l19.4,14.04c0.4,0.29,0.88,0.45,1.37,0.45c0.63,0,1.25-0.26,1.69-0.72       c0.44-0.45,0.67-1.05,0.65-1.69l-0.66-23.94c-0.01-0.27,0.12-0.53,0.34-0.69l19.35-14.11c0.72-0.53,1.08-1.41,0.93-2.29       c-0.15-0.88-0.78-1.59-1.64-1.84l-22.97-6.77c-0.26-0.08-0.47-0.28-0.55-0.54l-7.44-22.76       C838.81,329.51,837.92,328.86,836.9,328.86L836.9,328.86z"/></g></g><g><path fill="#2e3b61" d="M1234.41,343.24c-1.27,5.31-10.62,21.12-16.81,21.12c-2.36,0-4.86-0.77-7.07-1.75    c0.93,2.82,1.78,5.87,2.5,9.22c2.66,12.46,0.9,23.72-2.84,32.35l-65.95-72.64c12.64-8.45,27.84-13.76,39.63-3.11    c0.58-2.02,7.65-23.72,41.57-16.57c-1.51-0.16-17.18-1.78-21.62,4.46c0,0,13.52-6.19,21.99-1.01    C1234.28,320.48,1235.69,337.93,1234.41,343.24z"/><path fill="#ffbf9d" d="M1346.85,803.77c-4.59-2.3-9.02-12.59-10.61-15.31c-14-27.74-30.14-71.9-35.47-81.81    c-1.95-3.61-5.67-20.63-10.56-42.56c-8.76-39.35-21.23-94.5-33.72-116.36c-1.5-2.62-5.79-4.85-11.42-6.72    c-17-5.66-46.07-8.02-46.07-8.02l15.18,52.31l4.45,15.34c0,0,13.51,37.9,23.99,68.87c5.06,14.95,9.4,28.3,11.17,34.97    c5.42,20.49,65.06,99.23,65.06,99.23l0.02,0l-0.01,0.01c0,0,1.81,0.96,3.92,5.75c2.11,4.79,18.98,30.2,26.2,30.2    c7.23,0,8.73-18.27,10.24-23.78C1360.71,810.39,1352.57,806.65,1346.85,803.77z"/><path fill="#fff" d="M1119.29,430.25c0,0-0.17,4.61,10.78,6.91c0,0,9.19,1.93,10.23-2.9    C1140.3,434.26,1132.47,428.46,1119.29,430.25z"/><polygon fill="#ffbf9d" points="1395.17 1042.51 1513.03 998.17 1496.63 946.06 1369.09 975.58"/><path fill="#e8505b" d="M1497.65,1004.44l3.48-1.04c0,0,41.52,51.78,52.9,49.02l-36.04-116.87l-38.4,13.58         C1493,964.03,1499.51,981.94,1497.65,1004.44z"/><path fill="#fff" d="M1495.67 957.14c-.08-2.45 1.98-4.8 4.43-4.98 2.45-.18 4.85 1.9 4.97 4.35.12 2.45-2.27 5.34-4.72 5.25-2.45-.1-5.14-2.69-4.67-5.09M1517.99 935.55l-9.24 3.27 37.92 110.82c0 0 3.87 4.51 7.35 2.79L1517.99 935.55z" opacity=".6"/><path fill="#263238" d="M1501.58 1003.71c.57-.19-.06-3.13.91-6.5.88-3.4 2.91-5.61 2.52-6.06-.27-.49-3.42 1.41-4.52 5.52C1499.35 1000.76 1501.1 1004 1501.58 1003.71zM1510.43 1014.41c.59-.04.8-2.81 2.62-5.49 1.74-2.74 4.2-4.03 4-4.59-.08-.56-3.54.07-5.73 3.45C1509.09 1011.13 1509.89 1014.56 1510.43 1014.41zM1527.25 1016.84c-.04-.56-3.13-.47-5.81 1.96-2.69 2.41-3.09 5.48-2.54 5.58.57.18 1.71-2.07 3.94-4.03C1525.01 1018.33 1527.37 1017.43 1527.25 1016.84z"/><polygon fill="#ffbf9d" points="1123.15 1273.07 1157.54 1394.21 1210.83 1382.19 1192.01 1252.64"/><path fill="#e8505b" d="M1152.57,1378.36l0.75,3.56c0,0-55.06,37.07-53.25,48.64l119.46-26.19l-10.34-39.4         C1193.22,1377.08,1174.84,1382.08,1152.57,1378.36z"/><path fill="#fff" d="M1199.87 1380.32c2.45.13 4.62 2.37 4.59 4.83-.02 2.45-2.29 4.68-4.75 4.6-2.45-.08-5.14-2.7-4.84-5.14.3-2.44 3.11-4.9 5.47-4.23M1219.52 1404.36l-2.49-9.48-113.59 28.58c0 0-4.81 3.48-3.39 7.09L1219.52 1404.36z" opacity=".6"/><path fill="#263238" d="M1152.97 1382.34c.15.58 3.12.2 6.4 1.45 3.31 1.16 5.35 3.36 5.83 3.01.51-.23-1.12-3.53-5.12-4.97C1156.1 1380.36 1152.72 1381.83 1152.97 1382.34zM1141.57 1390.27c-.01.59 2.73 1.03 5.26 3.07 2.58 1.96 3.67 4.52 4.24 4.36.57-.03.22-3.53-2.96-6C1144.95 1389.2 1141.46 1389.71 1141.57 1390.27zM1137.74 1406.83c.56.01.73-3.08-1.47-5.95-2.18-2.88-5.21-3.54-5.35-3-.22.55 1.92 1.88 3.69 4.26C1136.45 1404.47 1137.15 1406.9 1137.74 1406.83z"/><path fill="#b1842a" d="M1061.16,757.39c0,0-4.38,231.25,18.29,387.6l52.16,169.53l70.66-14.27c0,0-27.11-175.41-30.88-247     c-3.77-71.59-1.15-334.01-1.15-334.01L1061.16,757.39z"/><path fill="#c19c54" d="M1108.07,736.61l68.54,264.47c14.02,54.12,70.14,85.8,123.72,69.87l156.53-46.56l-22.56-67.44     l-146.45,24.54l-19.63-152.63c0,0-27.26-113.97-63.45-113.93C1196.91,714.93,1108.07,736.61,1108.07,736.61z"/><path fill="#ffbf9d" d="M1028.39,237.82l-0.27,14.35c0,0-5.83,111.01-5.47,127.63c0.36,16.62,56.02,111.86,56.02,111.86       l-33.99,55.7l-67.17-138.11c-3.14-5.65-4.4-12.14-3.61-18.56l18.33-147.59l0.48-3.89"/><path fill="#6177b8" d="M1023.19,383.18l59.81,79.11c11.26,14.89,30.66,23.34,47.91,30.48l0,0c42.88,2.1,94.93-3.56,116.3,31.29     c3.58,5.84,4.53,12.91,2.53,19.46c-9.25,30.35-39.83,131.43-40.99,144.34c0,0,13.32,13.74,10.33,22.23     c-2.98,8.49-14.31,4.84-14.31,4.84l-141.02,41.7c0,0-6.35-3.28-5.76-7.91c0.56-4.38,5.15-17.31,10.13-30.47     c8.11-21.41,9.24-44.89,2.94-66.9c-2.64-9.21-5.07-18.84-6.31-26.7l-3.57-50.31c-19.6-32.58-63.44-80.14-85.92-146.75     L1023.19,383.18z"/><path fill="#ffbf9d" d="M1204.14,391.62c3.43-27.41-16.39-52.45-44.22-55.11c-26.23-2.5-49.54,17.03-53.47,43.09       c-3.45,22.84-6.41,45.89-6.3,54.27c0.32,25.25,15.09,35.08,21.08,38.03c1.37,0.67,5.14,1.44,6.64,1.65l0,0       c0.09,0.01,0.16,0.1,0.14,0.2l-5.61,28.99c-2.54,18.99,8.06,35.93,27.02,38.69c19.02,2.77,33.89-11.81,36.8-30.82       L1204.14,391.62z"/><path fill="#263238" d="M1110.8 394.36c.42.59 3.75-1.2 8.02-.56 4.28.57 7.09 3.23 7.63 2.77.26-.2-.1-1.21-1.32-2.4-1.2-1.19-3.35-2.48-6.02-2.86-2.66-.37-5.05.28-6.48 1.1C1111.17 393.23 1110.59 394.1 1110.8 394.36zM1148.83 402.6c.42.59 3.76-1.2 8.03-.56 4.28.57 7.09 3.23 7.63 2.77.26-.2-.1-1.21-1.33-2.4-1.2-1.19-3.35-2.48-6.02-2.86-2.66-.37-5.05.28-6.48 1.1C1149.2 401.47 1148.62 402.34 1148.83 402.6z"/><path fill="#ff9a6c" d="M1128.05,473.58c0,0,16.31,3.76,38.76-5.64c0,0-9.69,20.87-40.27,13.45L1128.05,473.58z"/><path fill="#263238" d="M1151.77 388.7c.25 1.22 4.6 1.3 9.53 2.63 4.95 1.24 8.78 3.29 9.6 2.35.37-.46-.18-1.65-1.65-3.02-1.46-1.36-3.89-2.8-6.85-3.58-2.96-.77-5.79-.69-7.72-.21C1152.73 387.34 1151.67 388.12 1151.77 388.7zM1115.12 381.19c.61 1.08 3.7.5 7.25.97 3.56.34 6.44 1.61 7.28.69.37-.45.04-1.49-1.13-2.6-1.16-1.1-3.21-2.17-5.65-2.45-2.44-.28-4.68.3-6.06 1.11C1115.41 379.73 1114.85 380.67 1115.12 381.19zM1070.29 636.74c-.11.04-.65-1.15-1.55-3.35-.93-2.19-2.04-5.45-3.2-9.53-2.35-8.16-4.46-19.84-4.43-32.85.07-13.02 2.27-24.68 4.68-32.83 1.2-4.08 2.33-7.33 3.27-9.51.91-2.19 1.47-3.38 1.57-3.34.28.11-1.62 4.99-3.71 13.15-2.1 8.15-4.08 19.67-4.15 32.52-.03 12.84 1.87 24.38 3.9 32.55C1068.7 631.74 1070.57 636.63 1070.29 636.74zM1200.94 667.91c.42-.19 2.9 4.49 5.52 10.45 2.63 5.96 4.42 10.94 3.99 11.12-.42.19-2.9-4.49-5.53-10.45C1202.3 673.07 1200.51 668.09 1200.94 667.91z"/><path fill="#455a64" d="M1172.89 986.71c-.45.11-11.12-43.38-23.84-97.12-12.72-53.76-22.66-97.41-22.21-97.52.45-.11 11.12 43.37 23.84 97.13C1163.39 942.94 1173.34 986.6 1172.89 986.71zM1235.74 736.66c.07.08-.58.84-1.92 2.08-1.33 1.24-3.4 2.89-6.16 4.63-5.47 3.49-14.11 7.08-24.17 7.53-10.06.45-18.99-2.35-24.75-5.34-2.91-1.49-5.11-2.95-6.55-4.06-1.44-1.11-2.16-1.82-2.1-1.9.18-.25 3.34 2.25 9.16 4.9 5.77 2.65 14.45 5.17 24.17 4.73 9.72-.44 18.14-3.72 23.64-6.88C1232.62 739.2 1235.55 736.43 1235.74 736.66zM1136.52 839.38c-.05.07-1.26-.72-3.04-2.62-1.77-1.89-3.99-4.99-5.9-9.21-1.96-4.2-3.6-9.46-5.4-15.22-1.8-5.82-3.77-12.16-5.83-18.82-4.09-13.37-7.7-25.49-10.24-34.3-1.16-4.15-2.14-7.65-2.92-10.45-.65-2.48-.96-3.86-.85-3.9.11-.03.63 1.29 1.47 3.71.92 2.76 2.07 6.2 3.43 10.29 2.82 8.71 6.62 20.79 10.71 34.15 2.02 6.67 3.94 13.02 5.7 18.86 1.72 5.81 3.23 11.03 5.01 15.2C1132.1 835.56 1136.77 839.18 1136.52 839.38zM1116.5 749.62c-.21-.05.63-1.57 2.95-1.46 1.07.08 2.48.56 3.35 1.94.91 1.4.58 3.46-.57 4.76-1.1 1.34-3.09 2-4.61 1.32-1.5-.64-2.21-1.95-2.45-2.99-.48-2.28.89-3.35.97-3.14.22.13-.48 1.21.16 2.81.3.75.95 1.6 1.86 1.89.88.32 2.02-.06 2.79-.96.77-.91.97-2.09.5-2.91-.44-.85-1.37-1.35-2.16-1.53C1117.62 748.96 1116.66 749.82 1116.5 749.62zM1125.32 764.12c-.05-.08.24-.44 1.02-.59.75-.14 2.01.02 3.06 1.06 1.13.98 1.46 3.22.35 4.84-.95 1.72-3.51 2.69-5.6 1.87-2.14-.69-3.5-2.71-3.77-4.51-.28-1.81.04-3.5.93-4.67.84-1.12 2.03-1.63 2.87-1.5.85.13 1.05.64.99.68-.08.12-.43-.13-1-.03-.55.08-1.34.58-1.88 1.52-1.05 1.68-.78 5.89 2.41 6.93 1.51.54 3.02 0 3.78-1.13.8-1.11.71-2.42.06-3.2-.64-.82-1.55-1.14-2.15-1.2C1125.75 764.11 1125.38 764.24 1125.32 764.12zM1075.78 759.17c.16-.06 1.27 2.35 1.9 6.57.65 4.19.54 10.22-1.38 16.46-1.95 6.24-5.27 11.27-8.18 14.36-2.91 3.12-5.19 4.48-5.28 4.34-.18-.22 1.8-1.9 4.39-5.11 2.59-3.19 5.6-8.09 7.48-14.08 1.84-6 2.13-11.74 1.8-15.84C1076.19 761.75 1075.5 759.25 1075.78 759.17zM1292.03 979.32c.33.33-5.16 6.35-12.25 13.44-7.09 7.1-13.11 12.59-13.43 12.26-.33-.33 5.16-6.34 12.25-13.44C1285.69 984.48 1291.7 978.99 1292.03 979.32z"/><path fill="#455a64" d="M1281.25,1008.95c-0.45-0.11,0.59-5.96,2.32-13.06c1.73-7.11,3.5-12.78,3.95-12.67      c0.45,0.11-0.59,5.96-2.32,13.06C1283.47,1003.39,1281.7,1009.06,1281.25,1008.95z"/><path fill="#2e3b61" d="M1132.01,338.74c-14.09,3.65-31.87,18.16-25.24,38.99c17.27-4.23,32.89-16.74,46.9-27.68     c3.01,15.9,5.03,24,13.13,38.84c3.11,5.69,29.43,28.73,33.15,30.52c3.73,1.79,5.66-15.72,2.2-22.4     C1202.16,397,1185.67,324.83,1132.01,338.74z"/><path fill="#2e3b61" d="M1179.84,395.73c0,10.99,2.25,22.37,8.81,31.19c6.55,8.83,18.04,14.51,28.74,11.98     c-2.81-3.1-5.61-6.19-8.42-9.29c6.38,3.48,14.73,2.96,20.64-1.27c-19.78-4.94-37.25-18.47-46.98-36.39"/><path fill="#263238" d="M1188.24,360.89c0.17-0.1,1.96,2.42,4.22,6.86c2.26,4.44,4.87,10.87,6.65,18.29      c1.77,7.42,2.36,14.34,2.35,19.32c0,4.99-0.46,8.04-0.66,8.03c-0.55,0,0.25-12.34-3.32-26.96      C1194.05,371.78,1187.75,361.13,1188.24,360.89z"/><path fill="#263238" d="M1201.42,367.11c0.21-0.03,0.87,2.52,1.48,6.72c0.62,4.2,1.14,10.06,1.13,16.55      c-0.02,6.49-0.58,12.35-1.23,16.55c-0.64,4.2-1.31,6.75-1.52,6.71c-0.5-0.08,1.07-10.42,1.08-23.27      C1202.43,377.54,1200.92,367.18,1201.42,367.11z"/><path fill="#e8505b" d="M1199.01,434.29"/><path fill="#fafafa" d="M1198.91 351.7c.01.1-1.38.35-3.63.82-2.24.46-5.33 1.17-8.67 2.16-3.35.99-6.32 2.06-8.46 2.89-2.14.82-3.45 1.37-3.49 1.28-.04-.08 1.21-.77 3.31-1.71 2.1-.94 5.08-2.1 8.45-3.09 3.38-.99 6.5-1.63 8.78-1.98C1197.48 351.71 1198.9 351.62 1198.91 351.7zM1181.7 336.96c.01.11-1.55.3-4.05.76-2.49.46-5.91 1.26-9.56 2.51-3.65 1.26-6.83 2.74-9.08 3.91-2.25 1.17-3.6 1.98-3.66 1.89-.03-.04.29-.28.87-.69.58-.42 1.45-.97 2.56-1.61 2.21-1.29 5.39-2.85 9.09-4.13 3.7-1.27 7.17-2 9.7-2.35 1.27-.18 2.3-.28 3.01-.31C1181.3 336.91 1181.7 336.91 1181.7 336.96zM1152.73 332.31c.06.18-3.75 1.47-8.33 3.32-2.29.93-4.33 1.84-5.76 2.58-1.43.74-2.26 1.29-2.33 1.21-.16-.19 3.17-2.63 7.83-4.41 2.31-.94 4.44-1.65 6-2.11C1151.72 332.44 1152.71 332.22 1152.73 332.31zM1194.59 377.09c.05.17-1.47.71-3.42.92-1.95.22-3.54.03-3.54-.15 0-.19 1.56-.3 3.46-.51C1193 377.14 1194.54 376.91 1194.59 377.09zM1202.24 382.51c.01.18-1.01.37-2.28.41-1.26.04-2.29-.08-2.3-.26-.01-.18 1.01-.37 2.28-.41C1201.2 382.21 1202.23 382.33 1202.24 382.51zM1208.55 375.99c-.02.18-1.31.2-2.88.04-1.57-.16-2.83-.44-2.81-.63.02-.18 1.31-.2 2.88-.04C1207.31 375.53 1208.56 375.81 1208.55 375.99z"/><path d="M1200.74,414.94c0.59-13.11-1.38-26.32-5.76-38.69c-0.56-1.57-1.13-3.41-0.22-4.81c1.22-1.88,4.34-1.39,5.74,0.35      s1.56,4.14,1.67,6.37c-0.01-1.44,0.8-2.85,2.05-3.56c5.5,12.37,4.19,27.52-3.35,38.76" opacity=".3"/><path fill="#6177b8" d="M1280.19,634.54c-1.48,21.75-9.28,41.76-19.82,56.6c-2.34,3.31-5.17,6.07-8.29,8.29l-31.58-68.58     l-11.02-25.67c0,0-30.39-59.23-16.77-84.93c12.3-23.19,35.88-24.09,53.74-4.53C1264.32,535.25,1282.79,595.83,1280.19,634.54z"/><line x1="1252.92" x2="1252.08" y1="701.26" y2="699.43" fill="#6177b8"/><path fill="#263238" d="M1210.52 626.03c-15.76-23.08-17.72-71.93-17.72-71.93M1192.79 566.25c0 0-.24 22.01-5.82 24.75M1207.59 636.74c2.16 16.42 3.02 45.22-11.58 56.15-2.32 1.66-5.01 2.75-7.8 3.26 2.77-.59 5.41-1.76 7.65-3.46C1210.01 681.7 1209.15 653.09 1207.59 636.74L1207.59 636.74z"/><path fill="#4b3137" d="M1123.73,433.54c-1.54-0.69-3.13-1.57-4.76-2.66c-0.24-0.16-0.31-0.49-0.14-0.73    c0.16-0.24,0.49-0.3,0.74-0.14c10.91,7.35,20.5,4.3,20.6,4.27c0.28-0.09,0.58,0.06,0.67,0.34c0.09,0.28-0.06,0.58-0.33,0.67    C1140.14,435.39,1132.93,437.7,1123.73,433.54z"/><path fill="#e8505b" d="M1132.01,338.74c16.17,1.9,35.67,11.92,46.59,25.22c10.92,13.3,20.26,35.49,21.85,52.18     c15.47-19.51,9.51-54.98-6.34-70.66C1178.26,329.8,1151.57,328.05,1132.01,338.74"/><path fill="#ffbf9d" d="M985.8,179.98c-0.07,0.06-0.04,0.4,0.05,0.96c0.77,4.61,6.51,24.06,9.12,24.24      c2.93,0.19,9.18-3.2,8.93-5.9c-0.26-2.7-7.95-24.26-7.95-24.26s-1.43-3.33-7.49-2.55C984.71,172.96,985.8,179.98,985.8,179.98z"/><path fill="#ffbf9d" d="M995.56,169.69c-0.07,0.06-0.04,0.4,0.05,0.96c0.77,4.61,6.51,24.06,9.12,24.23      c2.93,0.19,9.18-3.2,8.93-5.9c-0.26-2.7-7.95-24.25-7.95-24.25s-1.43-3.33-7.49-2.55C994.47,162.67,995.56,169.69,995.56,169.69      z"/><path fill="#ffbf9d" d="M1006.05,162.99c-0.07,0.06-0.04,0.4,0.05,0.96c0.77,4.61,6.51,24.06,9.12,24.23      c2.93,0.19,9.18-3.2,8.93-5.9c-0.26-2.7-7.95-24.25-7.95-24.25s-1.43-3.33-7.49-2.55      C1004.96,155.97,1006.05,162.99,1006.05,162.99z"/><path fill="#ffbf9d" d="M1016.53,156.52c-0.07,0.06-0.04,0.4,0.05,0.96c0.77,4.61,6.51,24.06,9.12,24.23      c2.93,0.19,9.18-3.2,8.93-5.9c-0.26-2.7-7.95-24.25-7.95-24.25s-1.43-3.33-7.49-2.55      C1015.44,149.49,1016.53,156.52,1016.53,156.52z"/><path fill="#ff9a6c" d="M1002.39 193.54c-.34.07-1.94-4.08-3.56-9.25-1.62-5.18-2.66-9.43-2.32-9.49.34-.07 1.94 4.08 3.56 9.25C1001.7 189.23 1002.74 193.48 1002.39 193.54zM1013.93 190.4c-.34.11-2.51-5.81-4.86-13.21-2.35-7.41-3.98-13.49-3.65-13.6.34-.11 2.51 5.81 4.86 13.22C1012.63 184.2 1014.27 190.29 1013.93 190.4z"/><path fill="#ff9a6c" d="M1025.36,186.17c-0.34,0.11-2.51-5.81-4.86-13.21c-2.35-7.41-3.98-13.49-3.65-13.6       c0.34-0.11,2.51,5.81,4.86,13.22C1024.07,179.97,1025.7,186.06,1025.36,186.17z" opacity=".78"/><g><path fill="#ffbf9d" d="M996.25,217.33c-0.33-1.16-10.58-40.58-10.58-40.58l49.79-0.06c1.86,3.09,5.24,34.76,5.24,34.76       l-2.59,10.4c0,0-34.27,15.26-35.16,15.34C1002.06,237.26,996.25,217.33,996.25,217.33z"/><path fill="#ffbf9d" d="M1030.12,213.01l6.02-15.65c2.63-6.84,2.52-14.44-0.32-21.2l-2.17-5.16l-37.88,12.75         c0,0,7.16,12.76,17.01,7.27l-8.49,13.02L1030.12,213.01z"/><path fill="#ff9a6c" d="M1007.27,205.74c0.21,0,0.1-1.9,1.04-4.97c0.93-3,3.21-7.36,7.95-10.17l3.61-2.14l-4.15,0.71        c-2.96,0.51-6.18,1.06-9.58,1.65l0.2-0.01c-3.88-0.11-8.31-1.91-9.99-5.94c-0.12-0.3-0.25-0.66-0.3-0.89l-0.65,1.08        c10.86-3.15,20.64-6.15,27.56-8.71c3.47-1.27,6.23-2.38,8.12-3.21c1.89-0.83,2.9-1.36,2.85-1.47        c-0.1-0.25-4.38,1.24-11.39,3.45c-7,2.24-16.78,5.02-27.66,8.16l-0.84,0.24l0.19,0.84c0.11,0.47,0.25,0.83,0.41,1.24        c1.01,2.38,2.89,4.27,5.04,5.36c2.14,1.15,4.46,1.52,6.6,1.63l0.1,0.01l0.1-0.02c3.39-0.66,6.59-1.28,9.54-1.86l-0.54-1.43        c-5.11,3.25-7.29,8.06-8.01,11.27C1006.72,203.84,1007.17,205.76,1007.27,205.74z"/><path fill="#ff9a6c" d="M1000.23,188.78c-0.36-0.01,0.05,2.01-0.77,4.58c-0.45,1.2-1.61,2.56-3.11,2.46        c-1.56-0.07-3.05-1.43-3.95-3.35c-1.81-4.07-3.7-7.8-4.76-10.49c-1.1-2.72-1.6-4.49-1.87-4.44c-0.23,0.04-0.18,1.93,0.63,4.86        c0.81,2.97,2.46,6.68,4.35,10.91c0.99,2.14,3.05,4.24,5.58,4.22c2.65-0.06,4.02-2.26,4.39-3.77c0.4-1.62,0.17-2.89,0.01-3.72        C1000.54,189.21,1000.35,188.77,1000.23,188.78z"/></g><g><path fill="#263238" d="M991.82,224.1l-15.49-29.15c-1.86-3.51-0.53-7.86,2.97-9.72l73.06-38.87            c3.51-1.87,7.86-0.53,9.73,2.97l15.49,29.15c1.86,3.51,0.53,7.86-2.97,9.72l-73.06,38.87            C998.04,228.94,993.68,227.61,991.82,224.1z"/><path fill="#fafafa" d="M1075.04,179.79l-3-5.65c-0.4-0.76-1.37-1.03-2.16-0.61l-1.03,0.55c-0.79,0.42-1.76,0.15-2.16-0.61            l-5.86-11.02c-0.4-0.76-0.09-1.71,0.71-2.14l1.02-0.55c0.79-0.42,1.11-1.38,0.7-2.14l-1.06-1.99l-2.63-4.95            c-1.31-2.46-4.36-3.39-6.81-2.08l-71.31,37.94c-2.46,1.31-3.39,4.35-2.08,6.81l15.46,29.09c1.31,2.46,4.36,3.39,6.81,2.08            l71.31-37.94C1075.42,185.29,1076.35,182.25,1075.04,179.79z"/></g><path fill="#acdb8c" d="M1075.73,179.74l-3.05-5.7l-8.9-16.66l-1.07-2.01l-2.67-4.99c-1.32-2.48-4.42-3.41-6.91-2.08l-72.31,38.65    c-2.49,1.33-3.43,4.42-2.11,6.9l15.68,29.36c1.32,2.48,4.42,3.41,6.91,2.08l72.31-38.65    C1076.11,185.31,1077.06,182.22,1075.73,179.74z"/><g><circle cx="1038.03" cy="180.73" r="14.89" fill="#fff" transform="rotate(-29.506 1037.95 180.762)"/><path fill="#90d064" d="M1033.19,173.46l-2.14,6.54c-0.12,0.36-0.09,0.75,0.08,1.08l0.32,0.63c0.17,0.34,0.47,0.59,0.82,0.71     l13.14,4.29c1.2,0.39,2.28-0.86,1.71-1.99l-0.21-0.41c-0.17-0.33-0.46-0.58-0.81-0.7l-10.6-3.6c-0.74-0.25-1.13-1.04-0.89-1.78     l1.27-3.89c0.12-0.36,0.09-0.76-0.09-1.1l0,0C1035.21,172.13,1033.58,172.27,1033.19,173.46z"/></g><g><path fill="#ffbf9d" d="M1028.39,237.82l2.18-11.4c5.7-4.61,9.4-11.24,10.33-18.51l0.71-5.56l-39.17-7.92        c0,0-3.65,11.85,11.09,14.81c-13.06,5.65-17.23,17.15-20.82,29.97L1028.39,237.82z"/><path fill="#ff9a6c" d="M1001.4,219.22c0.18,0.11,1.03-1.59,3.39-3.78c2.31-2.13,6.47-4.77,11.97-4.83l4.2-0.05l-3.95-1.46       c-2.82-1.04-5.88-2.17-9.12-3.37l0.18,0.09c-3.31-2.04-6.24-5.81-5.68-10.15c0.04-0.33,0.11-0.7,0.18-0.92l-1.1,0.61       c10.98,2.71,20.94,5.01,28.22,6.25c3.64,0.64,6.59,1.05,8.63,1.28c2.05,0.23,3.19,0.28,3.21,0.15       c0.04-0.27-4.41-1.12-11.59-2.71c-7.18-1.56-17.04-4.06-28.03-6.78l-0.85-0.21l-0.25,0.82c-0.14,0.46-0.2,0.84-0.26,1.28       c-0.31,2.57,0.37,5.14,1.68,7.16c1.28,2.06,3.1,3.55,4.9,4.71l0.09,0.06l0.09,0.03c3.26,1.12,6.35,2.19,9.19,3.17l0.25-1.51       c-6.05,0.26-10.34,3.32-12.58,5.75C1001.87,217.3,1001.3,219.19,1001.4,219.22z"/></g></g></svg>