<svg width="52" height="34" viewBox="0 0 52 34" fill="none" xmlns="http://www.w3.org/2000/svg">
<path fill-rule="evenodd" clip-rule="evenodd" d="M22.1831 3.58946C20.9759 1.47295 18.302 0.749913 16.2123 1.9725C14.1225 3.19508 13.4086 5.90317 14.6157 8.01969L27.7385 31.0384C28.9456 33.155 31.6195 33.878 33.7092 32.6554C35.799 31.4328 36.5129 28.7247 35.3058 26.6082L22.1831 3.58946Z" fill="#01D2D6"/>
<path fill-rule="evenodd" clip-rule="evenodd" d="M38.2904 2.96153C37.0832 0.845017 34.4093 0.121984 32.3196 1.34457C30.2298 2.56715 29.5159 5.27524 30.723 7.39176L43.8458 30.4105C45.0529 32.527 47.7268 33.2501 49.8165 32.0275C51.9063 30.8049 52.6202 28.0968 51.4131 25.9803L38.2904 2.96153Z" fill="#01D2D6"/>
<path fill-rule="evenodd" clip-rule="evenodd" d="M7.46212 15.2299C8.42263 13.5341 10.5643 12.9556 12.2387 13.9284C13.9132 14.9012 14.4843 17.0703 13.5238 18.7662L6.52756 31.0446C5.56705 32.7405 3.42535 33.3189 1.75094 32.3461C0.0765282 31.3733 -0.494589 29.2042 0.465927 27.5083C0.465927 27.5083 7.46212 15.2299 7.46212 15.2299Z" fill="#01D2D6"/>
</svg>
