<svg width="195" height="34" viewBox="0 0 195 34" fill="none" xmlns="http://www.w3.org/2000/svg">
<path d="M66 25.7598H68.6656V10.2468L75.4322 25.7598H77.307L84.0443 10.2768V25.7598H86.7099V4.99577H83.8685L76.3696 22.1591L68.8707 4.99577H66V25.7598Z" fill="#00191A"/>
<path d="M88.4038 17.4782C88.4038 22.5792 91.7139 26.0299 95.9906 26.0299C98.9492 26.0299 101.029 24.4696 101.996 22.6992V25.7598H104.691V9.31661H101.996V12.3172C101.058 10.6069 99.0078 9.04656 96.0199 9.04656C91.7139 9.04656 88.4038 12.3472 88.4038 17.4782ZM101.996 17.5082C101.996 21.379 99.4765 23.6294 96.5472 23.6294C93.6179 23.6294 91.1281 21.349 91.1281 17.4782C91.1281 13.6074 93.6179 11.417 96.5472 11.417C99.4765 11.417 101.996 13.6975 101.996 17.5082Z" fill="#00191A"/>
<path d="M106.368 17.4782C106.368 22.5792 109.679 26.0299 113.985 26.0299C116.914 26.0299 118.994 24.4396 119.96 22.6692V26.1199C119.96 29.6306 117.822 31.4909 114.981 31.4909C112.344 31.4909 110.44 30.1407 109.854 28.1603H107.218C107.745 31.671 110.762 33.8614 114.981 33.8614C119.697 33.8614 122.655 30.6508 122.655 26.1199V9.31661H119.96V12.3172C119.023 10.5468 116.914 9.04656 113.985 9.04656C109.679 9.04656 106.368 12.3472 106.368 17.4782ZM119.96 17.5082C119.96 21.379 117.441 23.6294 114.512 23.6294C111.583 23.6294 109.093 21.349 109.093 17.4782C109.093 13.6074 111.583 11.417 114.512 11.417C117.441 11.417 119.96 13.6975 119.96 17.5082Z" fill="#00191A"/>
<path d="M138.599 20.0587C138.599 12.3172 127.585 15.6778 127.585 10.2768C127.585 8.02636 129.313 6.85613 131.51 6.91614C134 6.94615 135.289 8.53646 135.464 9.94673H138.394C138.071 6.76611 135.523 4.57568 131.627 4.57568C127.585 4.57568 124.86 6.91614 124.86 10.3668C124.86 18.1383 135.904 14.5376 135.904 20.1787C135.904 22.1591 134.38 23.6594 131.803 23.6594C128.961 23.6594 127.76 21.9191 127.585 20.1787H124.743C124.802 23.6294 127.702 25.9699 131.803 25.9699C136.226 25.9699 138.599 23.0293 138.599 20.0587Z" fill="#00191A"/>
<path d="M143.825 25.7598H146.578L150.445 12.7073L154.312 25.7598H157.065L162.074 9.31661H159.438L155.806 23.1493L151.91 9.31661H149.185L145.202 23.1193L141.511 9.31661H138.787L143.825 25.7598Z" fill="#00191A"/>
<path d="M161.893 17.4782C161.893 22.5792 165.203 26.0299 169.48 26.0299C172.438 26.0299 174.518 24.4696 175.485 22.6992V25.7598H178.18V9.31661H175.485V12.3172C174.547 10.6069 172.497 9.04656 169.509 9.04656C165.203 9.04656 161.893 12.3472 161.893 17.4782ZM175.485 17.5082C175.485 21.379 172.966 23.6294 170.036 23.6294C167.107 23.6294 164.617 21.349 164.617 17.4782C164.617 13.6074 167.107 11.417 170.036 11.417C172.966 11.417 175.485 13.6975 175.485 17.5082Z" fill="#00191A"/>
<path d="M186.946 22.6392L181.908 9.31661H178.95L185.423 25.5798L182.26 33.5013H185.013L194.68 9.31661H191.926L186.946 22.6392Z" fill="#00191A"/>
<path fill-rule="evenodd" clip-rule="evenodd" d="M22.1831 3.58946C20.9759 1.47295 18.302 0.749913 16.2123 1.9725C14.1225 3.19508 13.4086 5.90317 14.6157 8.01969L27.7385 31.0385C28.9456 33.155 31.6195 33.878 33.7092 32.6554C35.799 31.4328 36.5129 28.7247 35.3058 26.6082L22.1831 3.58946Z" fill="#01D2D6"/>
<path fill-rule="evenodd" clip-rule="evenodd" d="M38.2904 2.96153C37.0832 0.845017 34.4093 0.121984 32.3196 1.34457C30.2298 2.56715 29.5159 5.27524 30.723 7.39176L43.8458 30.4105C45.0529 32.527 47.7268 33.2501 49.8165 32.0275C51.9063 30.8049 52.6202 28.0968 51.4131 25.9803L38.2904 2.96153Z" fill="#01D2D6"/>
<path fill-rule="evenodd" clip-rule="evenodd" d="M7.46212 15.2299C8.42264 13.5341 10.5643 12.9556 12.2387 13.9284C13.9132 14.9012 14.4843 17.0703 13.5238 18.7662L6.52756 31.0446C5.56705 32.7405 3.42535 33.3189 1.75094 32.3461C0.0765282 31.3733 -0.494589 29.2042 0.465927 27.5083L7.46212 15.2299Z" fill="#01D2D6"/>
</svg>
