<svg width="42" height="42" viewBox="0 0 42 42" fill="none" xmlns="http://www.w3.org/2000/svg">
<rect width="42" height="42" rx="5" fill="#3584F7" fill-opacity="0.05"/>
<path d="M22.1429 14.9504C22.1429 13.9325 20.9116 13.4228 20.1924 14.1428L16.7638 17.5713H15.2918C14.4225 17.5713 13.5257 18.0772 13.2651 19.0228C13.0884 19.6669 12.9992 20.3319 13 20.9999C13 21.6841 13.0922 22.347 13.2667 22.9771C13.5265 23.9218 14.4232 24.4285 15.2926 24.4285H16.7631L20.1916 27.8571C20.9116 28.5771 22.1429 28.0673 22.1429 27.0494V14.9504ZM26.0164 15.7473C26.1235 15.6403 26.2688 15.5802 26.4202 15.5802C26.5716 15.5802 26.7169 15.6403 26.824 15.7473C29.7253 18.6479 29.7253 23.3511 26.824 26.2525C26.7717 26.3086 26.7086 26.3537 26.6385 26.3849C26.5684 26.4161 26.4927 26.4329 26.416 26.4343C26.3393 26.4356 26.2631 26.4215 26.1919 26.3928C26.1208 26.364 26.0561 26.3212 26.0019 26.267C25.9476 26.2127 25.9048 26.1481 25.8761 26.0769C25.8474 26.0058 25.8332 25.9296 25.8346 25.8528C25.8359 25.7761 25.8527 25.7005 25.884 25.6304C25.9152 25.5603 25.9602 25.4972 26.0164 25.4449C26.6001 24.8612 27.0632 24.1682 27.3792 23.4055C27.6951 22.6429 27.8577 21.8254 27.8577 20.9999C27.8577 20.1744 27.6951 19.357 27.3792 18.5943C27.0632 17.8316 26.6001 17.1387 26.0164 16.555C25.9094 16.4478 25.8493 16.3026 25.8493 16.1512C25.8493 15.9997 25.9094 15.8545 26.0164 15.7473Z" fill="#3584F7"/>
<path d="M23.9959 17.7671C24.049 17.714 24.112 17.6719 24.1814 17.6431C24.2507 17.6144 24.3251 17.5996 24.4001 17.5996C24.4752 17.5996 24.5495 17.6144 24.6189 17.6431C24.6882 17.6719 24.7513 17.714 24.8043 17.7671C25.2289 18.1916 25.5657 18.6956 25.7955 19.2503C26.0253 19.805 26.1435 20.3995 26.1435 20.9999C26.1435 21.6003 26.0253 22.1948 25.7955 22.7495C25.5657 23.3041 25.2289 23.8081 24.8043 24.2326C24.6965 24.3367 24.5521 24.3942 24.4023 24.3928C24.2525 24.3915 24.1092 24.3313 24.0033 24.2253C23.8974 24.1193 23.8374 23.9759 23.8361 23.8261C23.8349 23.6763 23.8926 23.532 23.9967 23.4242C24.3151 23.1059 24.5676 22.7279 24.7399 22.3119C24.9122 21.896 25.0009 21.4501 25.0009 20.9999C25.0009 20.5496 24.9122 20.1038 24.7399 19.6878C24.5676 19.2718 24.3151 18.8939 23.9967 18.5755C23.8897 18.4683 23.8296 18.3231 23.8296 18.1717C23.8296 18.0202 23.8897 17.875 23.9967 17.7679L23.9959 17.7671Z" fill="#3584F7"/>
</svg>
